<?xml version="1.0" encoding="UTF-8"?>
<svg id="Layer_1" xmlns="http://www.w3.org/2000/svg" version="1.1" viewBox="0 0 1080 1080">
  <!-- Generator: Adobe Illustrator 29.6.1, SVG Export Plug-In . SVG Version: 2.1.1 Build 9)  -->
  <g>
    <path d="M144.08,711.66c-2.72,0-5.04.97-6.98,2.91-1.94,1.94-2.91,4.27-2.91,6.98s.97,5.02,2.91,6.92c1.94,1.9,4.26,2.85,6.98,2.85h37.11c5.43,0,10.51,1.15,15.24,3.43,4.73,2.29,8.73,5.41,11.98,9.37,3.1,3.88,5.35,8.14,6.75,12.8.93,3.1,1.4,6.36,1.4,9.77,0,4.89-.93,9.48-2.79,13.79-1.86,4.31-4.4,8.07-7.62,11.29-3.22,3.22-6.96,5.76-11.23,7.62-4.27,1.86-8.84,2.79-13.73,2.79h-65.74v-25.6h65.74c2.71,0,5.02-.97,6.92-2.91,1.9-1.94,2.85-4.27,2.85-6.98s-.95-4.9-2.85-6.81c-1.9-1.9-4.17-2.89-6.81-2.97h-37.46c-3.26,0-6.48-.47-9.66-1.4-3.49-1.01-6.69-2.48-9.6-4.42-2.91-1.94-5.49-4.26-7.74-6.98-3.18-3.8-5.47-8.07-6.86-12.8-.78-3.02-1.24-6.24-1.4-9.66v-.35c0-3.96.66-7.76,1.98-11.4,1.32-3.64,3.1-6.94,5.35-9.89,2.25-2.95,4.94-5.51,8.09-7.68,3.14-2.17,6.53-3.8,10.18-4.89,3.18-.93,6.48-1.4,9.89-1.4h65.62v25.6h-65.62Z"/>
    <path d="M336.17,685.94l-15.94,25.6h-66.43v19.66h66.43v25.6h-66.43v19.55h66.43l15.94,25.6h-107.97v-116h107.97Z"/>
    <path d="M347.8,685.94h25.6l56.78,74.46v-74.46h25.6v116h-26.18l-56.2-73.65v73.65h-25.6v-116Z"/>
    <path d="M483.34,685.94h92.03l-15.94,25.6h-25.25v90.4h-25.6v-90.4h-41.19l15.94-25.6Z"/>
    <path d="M612.6,685.94v116h-25.6v-116h25.6Z"/>
    <path d="M624.23,685.94h25.6l56.78,74.46v-74.46h25.6v116h-26.18l-56.2-73.65v73.65h-25.6v-116Z"/>
    <path d="M851.8,685.94l-15.94,25.6h-66.43v19.66h66.43v25.6h-66.43v19.55h66.43l15.94,25.6h-107.97v-116h107.97Z"/>
    <path d="M889.03,685.94v90.4h82.37l-15.94,25.6h-92.03v-116h25.6Z"/>
  </g>
  <g>
    <g>
      <path d="M683.96,303.98c.96-.86,1.87-1.67,3-2.68,2.72,3.17,5.38,6.27,8.21,9.57,2.63-2.22,5.22-4.42,7.79-6.59-2.76-5.99-26.57-29.4-36.65-36.02-2.12,2.6-4.25,5.22-6.47,7.95,3.66,3.02,7.17,5.91,10.77,8.88-.98,1.09-1.8,1.98-2.7,2.98-4.46-3.56-8.85-7.08-13.48-10.77,3.76-4.78,7.55-9.59,11.51-14.63,16.05,12.12,30.18,25.9,42.75,41.64-4.85,4.04-9.58,7.98-14.43,12.02-3.42-4.11-6.77-8.12-10.3-12.35Z"/>
      <path d="M410.14,265.51c4.09,4.91,8.01,9.64,12.01,14.44-4.16,3.46-8.18,6.82-12.34,10.29-.86-.96-1.7-1.9-2.7-3.02,3.25-2.78,6.35-5.43,9.6-8.21-2.31-2.71-4.52-5.3-6.83-8-13.57,10.77-25.42,22.97-35.91,36.81,2.71,2.2,5.35,4.34,8.06,6.54,3-3.62,5.89-7.13,8.87-10.72,1.08.97,1.97,1.77,2.98,2.67-3.57,4.47-7.1,8.89-10.76,13.47-4.85-3.82-9.63-7.59-14.61-11.51,12.08-16.03,25.9-30.19,41.63-42.75Z"/>
      <path d="M420.18,592.19c-3.63-2.99-7.09-5.84-10.72-8.83.93-1.09,1.76-2.05,2.64-3.08,4.51,3.62,8.94,7.18,13.49,10.83-3.79,4.81-7.56,9.59-11.51,14.6-16.03-12.02-30.07-25.87-42.76-41.59,4.84-4.03,9.55-7.96,14.45-12.04,3.45,4.14,6.84,8.2,10.31,12.37-1.03.9-1.99,1.73-3.06,2.66-2.78-3.25-5.44-6.36-8.19-9.58-2.7,2.3-5.3,4.51-7.87,6.7,5.25,8.4,27,29.65,36.79,35.91,2.07-2.56,4.17-5.15,6.43-7.95Z"/>
      <path d="M697.98,554.02c-3.03,3.7-5.88,7.18-8.81,10.76-1.08-.94-2.05-1.78-3.07-2.66,3.62-4.5,7.19-8.95,10.83-13.49,4.78,3.78,9.57,7.55,14.59,11.52-12.14,16.02-25.94,30.22-41.65,42.76-4.05-4.89-7.99-9.64-11.99-14.46,4.14-3.44,8.17-6.78,12.33-10.24.9.94,1.72,1.81,2.76,2.91-3.21,2.76-6.35,5.47-9.63,8.29,2.3,2.71,4.5,5.3,6.8,8.02,13.51-10.8,25.35-22.93,35.89-36.83-2.65-2.16-5.27-4.3-8.06-6.57Z"/>
      <path d="M377.24,547.41c-2.54-3.99-4.94-7.77-7.42-11.68,1.23-.75,2.26-1.37,3.4-2.07,3.16,4.79,6.29,9.54,9.49,14.39-5.09,3.41-10.15,6.79-15.46,10.35-11.47-16.43-20.69-33.93-27.74-52.79,5.83-2.34,11.54-4.64,17.37-6.98,1.96,4.9,3.91,9.76,5.96,14.87-1.11.52-2.24,1.04-3.63,1.7-1.62-3.89-3.19-7.67-4.85-11.68-3.22,1.31-6.37,2.59-9.77,3.97,6.02,16.24,14,31.3,23.95,45.57,2.94-1.91,5.73-3.73,8.71-5.66Z"/>
      <path d="M604.46,617.33c5.08-2.03,9.88-3.94,14.89-5.94.53,1.17,1.04,2.31,1.64,3.64-3.9,1.62-7.68,3.2-11.66,4.86,1.34,3.26,2.62,6.4,3.89,9.49,7.33-1.15,36.79-16.55,45.59-23.8-1.83-2.81-3.68-5.65-5.6-8.59-3.95,2.52-7.72,4.93-11.69,7.46-.74-1.23-1.38-2.29-2.08-3.44,4.8-3.15,9.5-6.23,14.43-9.47,3.38,5.04,6.75,10.08,10.12,15.11-4.84,5.77-42.27,25.59-52.68,27.86-2.26-5.67-4.53-11.37-6.85-17.18Z"/>
      <path d="M380.27,323.93c-2.95,4.66-5.72,9.02-8.58,13.55-1.11-.63-2.15-1.21-3.49-1.97,2.19-3.58,4.32-7.06,6.6-10.79-2.96-1.82-5.89-3.62-8.98-5.51-9.59,14.46-17.08,29.72-22.78,46.12,3.29,1.27,6.39,2.47,9.71,3.75,1.71-4.33,3.37-8.56,5.11-12.96,1.34.57,2.49,1.06,3.69,1.57-2.05,5.39-4.05,10.65-6.13,16.13-5.71-2.1-11.4-4.2-17.39-6.4,6.49-18.98,15.31-36.7,26.35-53.54,5.36,3.39,10.61,6.7,15.9,10.04Z"/>
      <path d="M715.66,554.5c-5.41-3.41-10.56-6.65-15.89-10.01,2.88-4.57,5.71-9.04,8.57-13.58,1.13.64,2.18,1.24,3.47,1.97-2.18,3.58-4.3,7.06-6.56,10.78,2.92,1.81,5.8,3.61,8.67,5.39,5.04-4.74,20.53-35.85,22.91-46.04-3.08-1.19-6.18-2.39-9.54-3.69-1.71,4.34-3.36,8.55-5.08,12.92-1.28-.53-2.38-.98-3.69-1.53,2.05-5.42,4.05-10.71,6.11-16.15,5.78,2.13,11.48,4.23,17.41,6.42-6.52,18.94-15.26,36.62-26.37,53.52Z"/>
      <path d="M740.54,362.81c-5.88,2.34-11.53,4.58-17.37,6.91-2.02-5.01-3.97-9.84-5.99-14.83,1.2-.56,2.35-1.09,3.66-1.7,1.64,3.97,3.2,7.75,4.84,11.75,3.26-1.35,6.4-2.64,9.78-4.04-6.07-16.22-13.98-31.26-23.95-45.55-2.88,1.86-5.72,3.69-8.74,5.64,2.49,3.9,4.92,7.72,7.47,11.71-1.24.75-2.26,1.36-3.41,2.06-3.15-4.78-6.24-9.47-9.49-14.4,5.01-3.36,10.1-6.77,15.44-10.36,11.5,16.41,20.64,33.88,27.76,52.82Z"/>
      <path d="M421.25,262.88c1.81,2.78,3.64,5.58,5.56,8.52,3.87-2.47,7.63-4.87,11.63-7.43.73,1.13,1.41,2.17,2.19,3.38-4.83,3.17-9.57,6.28-14.46,9.5-3.4-5.09-6.78-10.14-10.33-15.45,16.46-11.53,33.99-20.7,52.79-27.76,2.33,5.83,4.59,11.48,6.95,17.38-4.98,2-9.87,3.98-14.88,5.99-.5-1.12-.99-2.23-1.63-3.67,3.86-1.61,7.68-3.2,11.67-4.86-1.34-3.25-2.65-6.4-3.94-9.52-8.12,1.54-38.98,17.74-45.53,23.91Z"/>
      <path d="M425.01,608.4c14.48,9.61,29.74,17.09,46.14,22.8,1.27-3.31,2.47-6.48,3.73-9.77-4.37-1.71-8.54-3.34-12.93-5.05.55-1.3,1.05-2.45,1.57-3.67,5.37,2.03,10.62,4.02,16.11,6.1-2.11,5.73-4.2,11.43-6.4,17.41-18.98-6.53-36.72-15.3-53.52-26.37,3.35-5.31,6.64-10.51,10.01-15.85,4.52,2.84,8.94,5.61,13.58,8.53-.62,1.09-1.24,2.18-2,3.51-3.57-2.21-7.04-4.36-10.77-6.67-1.8,2.93-3.58,5.82-5.54,9.02Z"/>
      <path d="M688.14,576.5c-4.7-4.34-9.07-8.36-13.13-12.1,5.75-7.15,11.7-13.94,16.93-21.23,5.23-7.29,9.76-15.1,14.77-22.95,4.86,2.68,10.03,5.53,15.54,8.58-2.76,4.84-5.47,9.57-8.31,14.56-1.29-.73-2.45-1.37-3.73-2.09,2.15-3.71,4.23-7.29,6.42-11.06-2.97-1.66-5.73-3.21-8.7-4.87-7.72,13.96-16.77,26.74-27.66,38.56,2.4,2.22,4.72,4.37,7.34,6.79,3.18-3.66,6.29-7.25,9.5-10.96,1,.87,1.96,1.69,3.23,2.78-4.08,4.68-8.06,9.25-12.2,14Z"/>
      <path d="M373.75,348.43c-5.42-3.01-10.61-5.89-15.98-8.87,2.84-4.92,5.56-9.65,8.37-14.53,1.34.76,2.44,1.38,3.71,2.1-2.12,3.65-4.21,7.23-6.43,11.05,2.94,1.66,5.69,3.2,8.7,4.9,7.7-13.97,16.82-26.79,27.67-38.59-2.47-2.26-4.81-4.41-7.37-6.76-3.17,3.66-6.24,7.22-9.48,10.97-1-.87-1.99-1.75-3.22-2.82,4.07-4.66,8.05-9.24,12.18-13.97,4.55,4.2,8.91,8.21,13.45,12.41-12.57,13.22-23.09,27.81-31.6,44.13Z"/>
      <path d="M636.77,265.84c.61-1.09,1.19-2.14,1.91-3.43,3.58,2.18,7.07,4.3,10.79,6.56,1.8-2.91,3.6-5.8,5.56-8.96-14.4-9.6-29.72-17.05-46.17-22.84-1.27,3.32-2.48,6.49-3.73,9.76,4.37,1.71,8.52,3.34,12.91,5.07-.57,1.35-1.05,2.5-1.55,3.7-5.42-2.05-10.67-4.04-16.1-6.1,2.11-5.74,4.23-11.48,6.41-17.41,18.99,6.54,36.67,15.26,53.48,26.35-3.41,5.42-6.72,10.68-10.01,15.92-4.49-2.87-8.86-5.66-13.5-8.62Z"/>
      <path d="M443.1,253.1c3.08,5.49,5.96,10.59,8.97,15.94-16.04,8.7-30.57,19.32-43.64,32.21-4.14-4.41-8.2-8.74-12.51-13.34,4.14-3.75,8.23-7.46,12.49-11.32,1,1.15,1.87,2.15,2.81,3.23-3.19,2.86-6.3,5.64-9.5,8.51,2.38,2.54,4.55,4.87,6.82,7.29,11.61-10.93,24.22-20.25,38.21-28.13-1.63-2.89-3.19-5.64-4.93-8.72-4.16,2.52-8.22,4.97-12.42,7.51-.68-1.15-1.33-2.25-2.17-3.69,5.26-3.15,10.45-6.26,15.87-9.51Z"/>
      <path d="M410.3,574.44c-2.27,2.48-4.41,4.83-6.74,7.39,3.67,3.17,7.22,6.24,10.94,9.45-.91,1.05-1.78,2.06-2.81,3.25-4.65-4.06-9.18-8.02-13.93-12.18,4.16-4.54,8.16-8.89,12.35-13.46,13.3,12.53,27.83,23.15,44.16,31.58-2.93,5.29-5.79,10.45-8.85,15.97-4.86-2.77-9.59-5.47-14.54-8.29.77-1.35,1.42-2.49,2.13-3.73,3.74,2.17,7.27,4.23,11.02,6.41,1.64-2.94,3.19-5.7,4.86-8.69-13.93-7.77-26.8-16.81-38.58-27.69Z"/>
      <path d="M678.3,580.09c-2.28-2.48-4.44-4.81-6.75-7.32-11.64,10.89-24.3,20.24-38.27,28.14,1.66,2.91,3.22,5.66,4.94,8.7,4.15-2.51,8.17-4.94,12.4-7.5.7,1.2,1.38,2.34,2.18,3.71-5.35,3.18-10.58,6.29-15.91,9.46-3.04-5.42-5.94-10.6-8.93-15.95,16.08-8.7,30.53-19.32,43.67-32.2,4.15,4.45,8.23,8.82,12.48,13.38-4.2,3.79-8.27,7.46-12.45,11.23-.97-1.06-1.84-2.01-2.86-3.13,3.15-2.83,6.23-5.6,9.49-8.53Z"/>
      <path d="M706.72,340.93c2.99-1.7,5.69-3.23,8.7-4.94-2.5-4.15-4.93-8.17-7.48-12.4,1.11-.65,2.26-1.33,3.68-2.16,3.17,5.31,6.25,10.45,9.47,15.85-5.38,3.03-10.59,5.97-15.94,8.99-8.64-16.13-19.36-30.5-32.18-43.72,4.42-4.12,8.78-8.2,13.35-12.45,3.82,4.22,7.49,8.27,11.27,12.46-1.12,1-2.06,1.85-3.18,2.85-2.83-3.14-5.61-6.23-8.53-9.48-2.45,2.25-4.79,4.4-7.32,6.73,10.9,11.62,20.23,24.27,28.15,38.27Z"/>
      <path d="M752.76,428.24c-6.32.42-12.39.83-18.66,1.24-.35-5.34-.69-10.55-1.05-15.98,1.22-.12,2.47-.24,3.92-.38.35,4.17.69,8.25,1.06,12.57,3.54-.28,6.91-.55,10.24-.82.99-8.41-4.27-39.66-8.54-50.68-3.21.84-6.47,1.7-9.93,2.6,1.16,4.53,2.28,8.92,3.45,13.49-1.38.31-2.55.58-3.85.88-1.52-5.52-3.01-10.94-4.57-16.62,5.85-1.65,11.74-3.31,17.88-5.04,5.81,19.23,9.19,38.66,10.05,58.74Z"/>
      <path d="M519.3,241.15c-.14-1.37-.25-2.49-.39-3.93,4.18-.35,8.25-.68,12.55-1.04-.26-3.48-.51-6.87-.76-10.22-6.65-1.29-40.27,4.35-50.72,8.52.86,3.22,1.73,6.48,2.65,9.91,4.53-1.17,8.86-2.29,13.47-3.47.29,1.39.55,2.61.83,3.91-5.56,1.52-10.98,2.99-16.59,4.52-1.66-5.9-3.31-11.75-5.04-17.86,19.12-5.79,38.5-9.15,58.72-10.08.42,6.22.84,12.33,1.27,18.66-5.37.36-10.58.71-16,1.07Z"/>
      <path d="M625.79,267.91c2.97-5.35,5.84-10.53,8.85-15.96,4.89,2.81,9.63,5.54,14.54,8.35-.76,1.32-1.39,2.43-2.11,3.68-3.65-2.12-7.23-4.2-11.05-6.41-1.66,2.95-3.22,5.71-4.9,8.69,13.94,7.71,26.79,16.79,38.59,27.68,2.26-2.45,4.41-4.79,6.77-7.37-3.7-3.2-7.31-6.32-11.03-9.54.94-1.01,1.85-1.99,2.94-3.15,4.64,4.05,9.16,8,13.88,12.13-4.16,4.52-8.16,8.87-12.37,13.45-13.26-12.52-27.84-23.08-44.11-31.57Z"/>
      <path d="M595.51,248.15c-5.25-1.34-10.31-2.64-15.49-3.96.25-1.25.47-2.36.77-3.88,4,.95,7.96,1.89,12.3,2.92.81-3.34,1.62-6.69,2.48-10.25-16.69-4.69-33.51-7.07-50.9-7.45-.21,3.47-.4,6.79-.62,10.41,4.62.3,9.13.6,13.81.91-.09,1.42-.16,2.6-.24,3.91-5.78-.28-11.38-.54-17.23-.82.24-6.06.48-12.12.73-18.5,20.07.36,39.57,3.2,58.99,8.53-1.56,6.15-3.06,12.09-4.61,18.18Z"/>
      <path d="M342.02,442.72c-3.24.24-6.2.39-9.15.75-.52.06-1.38,1.01-1.35,1.51.93,16.59,3.58,32.89,8.55,48.78.02.06.1.11.4.44,3.09-.83,6.35-1.71,9.77-2.63-1.17-4.52-2.3-8.86-3.49-13.41,1.37-.32,2.59-.6,3.9-.9,1.52,5.59,2.99,11,4.5,16.59-5.9,1.68-11.74,3.33-17.82,5.06-5.86-19.21-9.17-38.66-10.09-58.77,6.32-.41,12.44-.8,18.67-1.2.36,5.44.7,10.59,1.06,15.95-1.31.12-2.49.22-3.94.35-.34-4.19-.66-8.19-1.01-12.52Z"/>
      <path d="M342.68,416.23c1.54.19,2.67.32,3.92.47-.26,5.6-.52,11.14-.78,16.63h-18.56c.35-20.33,3.28-39.84,8.54-59.23,6.18,1.56,12.08,3.05,18.17,4.59-1.3,5.16-2.58,10.23-3.91,15.5-1.22-.24-2.38-.47-3.89-.76.98-4.15,1.92-8.12,2.91-12.3-3.39-.83-6.69-1.64-9.96-2.44-3.39,6.29-8.51,40.76-7.53,50.93,3.31.15,6.68.31,10.2.47.31-4.74.59-9.21.89-13.86Z"/>
      <path d="M733.4,451.85c.3-5.86.58-11.41.87-17.28,6.06.25,12.11.5,18.47.76-.33,20.13-3.23,39.63-8.51,58.97-6.19-1.57-12.15-3.07-18.18-4.6,1.32-5.18,2.6-10.18,3.94-15.42,1.23.22,2.46.43,3.92.69-.99,4.14-1.94,8.11-2.94,12.31,3.42.83,6.72,1.63,10.26,2.49,4.64-16.74,7.13-33.54,7.37-50.94-3.27-.18-6.37-.42-9.47-.44-.37,0-1.03,1.13-1.08,1.77-.29,3.86-.43,7.74-.63,11.7h-4.03Z"/>
      <path d="M499.25,628.09c-4.15-.99-8.13-1.94-12.3-2.94-.83,3.42-1.63,6.72-2.49,10.28,16.69,4.59,33.49,7.12,50.94,7.38.19-3.47.36-6.78.55-10.38-4.69-.29-9.2-.58-13.91-.87.16-1.39.29-2.58.44-3.94,5.64.28,11.24.56,16.67.84v18.46c-20.33-.29-39.84-3.21-59.23-8.5,1.55-6.13,3.06-12.09,4.61-18.18,5.14,1.3,10.19,2.59,15.51,3.94-.25,1.22-.49,2.44-.79,3.91Z"/>
      <path d="M374.86,522.14c8.75,16.18,19.44,30.58,32.16,43.72-4.37,4.08-8.69,8.13-13.3,12.43-3.78-4.17-7.49-8.26-11.29-12.45,1.17-1.05,2.17-1.95,3.19-2.87,2.86,3.2,5.64,6.31,8.51,9.53,2.52-2.31,4.86-4.46,7.36-6.74-10.97-11.64-20.3-24.3-28.18-38.27-2.9,1.64-5.66,3.19-8.72,4.92,2.53,4.18,4.99,8.25,7.5,12.41-1.13.67-2.23,1.33-3.67,2.18-3.14-5.24-6.26-10.44-9.51-15.86,5.38-3.04,10.52-5.94,15.93-9Z"/>
      <path d="M560.74,627.25c.11,1.31.21,2.43.34,3.9-4.15.36-8.2.7-12.53,1.08.26,3.52.52,6.9.78,10.49,17.39-.67,34.13-3.64,50.77-8.69-.93-3.44-1.82-6.71-2.73-10.06-4.53,1.18-8.8,2.29-13.35,3.47-.34-1.29-.65-2.5-1.01-3.86,5.51-1.5,10.97-2.99,16.66-4.55,1.68,5.95,3.33,11.79,5.04,17.87-19.25,5.8-38.69,9.2-58.76,10.03-.41-6.34-.8-12.41-1.21-18.65,5.36-.35,10.51-.68,15.99-1.04Z"/>
      <path d="M506.32,636.76c-5.55-1.18-10.84-2.3-16.41-3.48.33-1.43.6-2.66.93-4.1,4.13.88,8.18,1.75,12.46,2.67.67-3.38,1.28-6.48,1.93-9.83-15.71-3.01-30.65-7.73-45.26-14.37-1.38,3.03-2.72,5.97-4.15,9.12,4.46,1.89,8.73,3.69,13.28,5.61-.5,1.21-.97,2.36-1.61,3.9-5.68-2.42-11.24-4.78-17.02-7.24,2.6-5.67,5.06-11.05,7.62-16.63,16.49,7.93,33.59,13.34,51.69,16.44-1.16,5.98-2.29,11.78-3.48,17.89Z"/>
      <path d="M372.88,518.3c-5.53,2.58-10.83,5.06-16.52,7.73-2.31-5.15-4.56-10.17-6.88-15.34,1.41-.6,2.57-1.1,3.89-1.67,1.74,3.93,3.43,7.72,5.17,11.64,3.13-1.44,6.01-2.76,8.76-4.03-2.9-7.56-6-14.85-8.48-22.34-2.47-7.43-4.32-15.06-6.5-22.83-3,.61-6.1,1.24-9.51,1.93,1.13,4.81,2.21,9.39,3.33,14.16-1.31.25-2.55.5-4.15.81-1.38-5.99-2.72-11.82-4.12-17.92,6.04-1.22,11.82-2.38,17.89-3.6,3.32,17.98,8.96,34.99,17.13,51.46Z"/>
      <path d="M743.05,403.64c.61,5.71,1.18,11.07,1.77,16.57-1.5.19-2.75.36-4.17.54-.45-4.27-.87-8.34-1.33-12.69-3.33.38-6.47.75-9.92,1.14,1.92,15.86,2.15,31.59.25,47.52,3.38.39,6.53.75,10,1.15.42-4.87.83-9.55,1.24-14.39,1.21.09,2.41.17,4.16.3-.52,6.1-1.03,12.12-1.57,18.42-6.12-.71-11.99-1.39-18.12-2.09,2.3-18.11,2.35-36.04-.42-54.22,6.05-.75,11.91-1.48,18.11-2.25Z"/>
      <path d="M366.63,354.19c-3.09-1.41-5.98-2.73-9.18-4.19-1.88,4.46-3.7,8.8-5.64,13.4-1.16-.53-2.35-1.06-3.88-1.76,2.41-5.64,4.76-11.15,7.25-16.98,5.62,2.57,11.04,5.05,16.6,7.59-7.84,16.5-13.36,33.56-16.39,51.7-5.96-1.15-11.76-2.27-17.91-3.45,1.16-5.53,2.29-10.87,3.44-16.36,1.47.3,2.7.55,4.14.84-.89,4.14-1.76,8.19-2.69,12.49,3.35.66,6.45,1.27,9.81,1.93,3.05-15.68,7.68-30.7,14.44-45.23Z"/>
      <path d="M517.45,624.22c-.35,3.01-.7,6.1-1.1,9.62,4.82.42,9.49.83,14.43,1.26-.14,1.28-.27,2.53-.44,4.17-6.13-.54-12.1-1.07-18.32-1.62.72-6.16,1.4-12.02,2.11-18.11,18.14,2.35,36.02,2.3,54.19-.38.75,5.97,1.49,11.83,2.27,18.06-5.53.6-10.95,1.19-16.62,1.81-.16-1.46-.3-2.71-.47-4.18,4.23-.44,8.29-.86,12.66-1.32-.39-3.34-.76-6.49-1.12-9.61-8.04.43-15.86,1.15-23.69,1.2-7.85.05-15.69-.56-23.9-.9Z"/>
      <path d="M727.34,397.03c3.36-.69,6.4-1.31,9.84-2.02-1.09-4.75-2.16-9.37-3.24-14.1,1.25-.3,2.49-.59,4.09-.96,1.37,6,2.72,11.91,4.12,18.02-6.08,1.22-11.88,2.39-17.87,3.59-3.35-17.94-8.92-34.98-17.15-51.45,5.42-2.54,10.84-5.07,16.54-7.74,2.28,5.1,4.52,10.08,6.85,15.29-1.4.64-2.6,1.19-3.88,1.78-1.72-3.93-3.36-7.69-5.11-11.7-3.04,1.39-5.92,2.7-9.11,4.15,6.71,14.43,11.79,29.31,14.92,45.14Z"/>
      <path d="M616.5,624.77c-.64-1.49-1.15-2.66-1.7-3.94,3.9-1.72,7.7-3.4,11.68-5.16-1.45-3.12-2.79-6-4.22-9.06-14.46,6.76-29.3,11.77-45.05,14.94.66,3.3,1.28,6.4,1.97,9.89,4.76-1.12,9.33-2.2,14.15-3.34.26,1.26.52,2.54.85,4.15-6.06,1.37-11.9,2.7-17.95,4.07-1.22-6.07-2.38-11.88-3.58-17.86,18.03-3.37,35.07-8.96,51.44-17.15,2.53,5.42,5.04,10.8,7.72,16.52-5.04,2.28-10,4.52-15.31,6.93Z"/>
      <path d="M708.23,516.1c7.98-16.59,13.34-33.62,16.44-51.67,5.91,1.14,11.71,2.26,17.83,3.45-1.13,5.49-2.23,10.81-3.38,16.35-1.49-.29-2.73-.54-4.14-.82.9-4.19,1.76-8.25,2.67-12.49-3.33-.67-6.38-1.28-9.8-1.97-3.04,15.57-7.65,30.6-14.42,45.28,3.04,1.38,5.97,2.72,9.14,4.16,1.9-4.52,3.73-8.86,5.64-13.38,1.19.53,2.35,1.05,3.86,1.72-2.38,5.62-4.74,11.19-7.22,17.01-5.7-2.62-11.11-5.11-16.62-7.65Z"/>
      <path d="M574.77,246.36c15.74,3.02,30.73,7.74,45.29,14.39,1.39-3.07,2.7-5.96,4.14-9.13-4.5-1.89-8.83-3.71-13.38-5.63.53-1.21,1.04-2.36,1.71-3.88,5.65,2.41,11.21,4.77,17.01,7.24-2.57,5.62-5.03,10.99-7.61,16.62-16.46-7.88-33.58-13.37-51.69-16.42,1.16-5.98,2.28-11.78,3.46-17.9,5.49,1.15,10.76,2.25,16.3,3.41-.27,1.49-.5,2.8-.75,4.19-4.19-.91-8.2-1.78-12.5-2.72-.66,3.3-1.3,6.46-1.97,9.84Z"/>
      <path d="M502.78,246.49c-.62-2.98-1.26-6.08-1.97-9.48-4.81,1.12-9.37,2.18-14.07,3.27-.31-1.36-.6-2.6-.95-4.14,6.04-1.37,11.95-2.71,18.01-4.09,1.23,6.11,2.39,11.85,3.6,17.87-17.9,3.29-34.9,8.94-51.45,17.08-2.55-5.42-5.07-10.76-7.75-16.46,5.12-2.3,10.16-4.57,15.29-6.87.63,1.38,1.17,2.54,1.78,3.88-3.93,1.73-7.73,3.4-11.71,5.15,1.43,3.08,2.76,5.96,4.08,8.8,7.51-2.91,14.79-6.04,22.28-8.53,7.43-2.47,15.08-4.3,22.87-6.48Z"/>
      <path d="M335.18,448.09c1.68-.16,2.87-.28,4.19-.4.45,4.24.88,8.31,1.34,12.66,3.38-.4,6.51-.77,9.92-1.17-1.98-15.87-2.05-31.54-.32-47.49-3.28-.38-6.42-.75-9.92-1.16-.44,4.87-.86,9.53-1.29,14.41-1.38-.12-2.64-.24-4.18-.38.56-6.17,1.1-12.15,1.66-18.37,6.16.72,12.03,1.4,18.13,2.11-2.5,18.11-2.33,36.03.35,54.21-5.93.74-11.8,1.47-18.06,2.24-.61-5.54-1.2-10.95-1.83-16.66Z"/>
      <path d="M509.47,231.18c5.61-.61,10.96-1.2,16.58-1.82.19,1.49.35,2.74.54,4.17-4.2.45-8.33.88-12.71,1.35.39,3.34.75,6.48,1.15,9.94,15.86-1.99,31.6-2.08,47.54-.32.37-3.33.72-6.47,1.11-9.95-4.88-.43-9.55-.83-14.37-1.25.1-1.36.18-2.55.3-4.18,6.12.54,12.14,1.07,18.42,1.63-.71,6.16-1.39,11.97-2.1,18.12-18.06-2.44-36.04-2.38-54.21.39-.74-5.97-1.46-11.77-2.24-18.08Z"/>
    </g>
    <path d="M674.5,555.15c-33.11,36.79-81.09,59.93-134.49,59.93s-101.38-23.14-134.5-59.93l134.5-125.52,134.49,125.52Z"/>
    <path d="M720.89,434.18c0,32.03-8.32,62.11-22.92,88.21l-154.84-144.5-3.31-2.96-3.01,3.01-154.78,144.45c-14.6-26.1-22.93-56.18-22.93-88.21,0-99.91,80.99-180.9,180.9-180.9s180.89,80.99,180.89,180.9Z"/>
    <path d="M540,211.07c-123.22,0-223.11,99.89-223.11,223.11s99.89,223.11,223.11,223.11,223.11-99.89,223.11-223.11-99.89-223.11-223.11-223.11ZM693.92,588.1c-19.99,19.99-43.27,35.69-69.19,46.65-26.84,11.35-55.35,17.11-84.73,17.11s-57.9-5.75-84.73-17.11c-25.92-10.96-49.2-26.65-69.2-46.65-19.99-19.99-35.69-43.27-46.66-69.2-11.35-26.83-17.11-55.34-17.11-84.73s5.75-57.89,17.11-84.73c10.96-25.92,26.66-49.2,46.66-69.2,19.99-19.99,43.27-35.69,69.2-46.65,26.83-11.35,55.34-17.11,84.73-17.11s57.89,5.76,84.73,17.11c25.92,10.96,49.2,26.65,69.19,46.65,19.99,19.99,35.69,43.27,46.66,69.2,11.35,26.84,17.11,55.34,17.11,84.73s-5.75,57.9-17.11,84.73c-10.96,25.92-26.66,49.2-46.66,69.2Z"/>
  </g>
  <g>
    <path d="M442.86,832.41v14.05h13.62v-14.05h8.26v36.52h-8.26v-15.28h-13.62v15.28h-8.26v-36.52h8.26Z"/>
    <path d="M499.05,853.48h-13.44v8.69h15.02v6.76h-23.28v-36.52h22.5v6.76h-14.24v7.61h13.44v6.7Z"/>
    <path d="M520.17,859.55l-2.58,9.38h-8.54l11.15-36.52h10.81l11.37,36.52h-8.9l-2.81-9.38h-10.5ZM529.45,853.4l-2.27-7.76c-.63-2.16-1.28-4.9-1.84-7.03h-.11c-.54,2.15-1.09,4.92-1.67,7.04l-2.18,7.75h8.08Z"/>
    <path d="M552.67,832.41h8.26v29.6h14.53v6.92h-22.79v-36.52Z"/>
    <path d="M587.19,839.34h-9.86v-6.93h28.11v6.93h-9.99v29.59h-8.26v-29.59Z"/>
    <path d="M623.51,832.41v14.05h13.62v-14.05h8.26v36.52h-8.26v-15.28h-13.62v15.28h-8.26v-36.52h8.26Z"/>
  </g>
</svg>